<?xml version="1.0" encoding="UTF-8"?>
<svg xmlns="http://www.w3.org/2000/svg" version="1.1" xmlns:xlink="http://www.w3.org/1999/xlink" viewBox="0 0 512 512">
  <defs>
    <style>
      .cls-1 {
        fill: #d3a1ff;
      }

      .cls-2 {
        font-size: 84.97px;
      }

      .cls-2, .cls-3 {
        font-family: LucidaHandwriting-Italic, 'Lucida Handwriting';
        font-style: italic;
      }

      .cls-4 {
        fill: #fff;
      }

      .cls-3 {
        font-size: 16.99px;
      }

      .cls-5 {
        font-family: BradleyHandITC, 'Bradley Hand ITC';
        font-size: 29.74px;
      }
    </style>
    <path id="path" d="M404.23,253.34c0-75.47-64.9-136.65-144.95-136.65s-144.95,61.18-144.95,136.65,64.9,136.65,144.95,136.65,144.95-61.18,144.95-136.65Z"/>
  </defs>
  <!-- Generator: Adobe Illustrator 28.7.1, SVG Export Plug-In . SVG Version: 1.2.0 Build 142)  -->
  <g>
    <g id="Layer_1">
      <g>
        <g>
          <path class="cls-1" d="M259.28,394.71c-79.6,0-144.35-61.03-144.35-136.05s64.76-136.05,144.35-136.05,144.35,61.03,144.35,136.05-64.76,136.05-144.35,136.05Z"/>
          <path class="cls-4" d="M259.28,123.2c38.41,0,74.52,14.1,101.68,39.7,27.14,25.58,42.08,59.59,42.08,95.76s-14.94,70.18-42.08,95.76c-27.16,25.6-63.27,39.7-101.68,39.7s-74.52-14.1-101.68-39.7c-27.14-25.58-42.08-59.59-42.08-95.76s14.94-70.18,42.08-95.76c27.16-25.6,63.27-39.7,101.68-39.7M259.28,122.01c-80.05,0-144.95,61.18-144.95,136.65s64.9,136.65,144.95,136.65,144.95-61.18,144.95-136.65-64.9-136.65-144.95-136.65h0Z"/>
        </g>
        <text>
          <textPath startOffset="118.84%" xlink:href="#path"><tspan><tspan class="cls-3" x="0" y="0" xml:space="preserve">                                                                                                        </tspan><tspan class="cls-5" x="0" y="0">Muskan Bhatia</tspan></tspan>
          </textPath></text>
        <text class="cls-2" transform="translate(181.59 282.03) scale(1.04 1)"><tspan x="0" y="0">M</tspan></text>
        <text class="cls-2" transform="translate(253.69 315.57) scale(1.04 1)"><tspan x="0" y="0">B</tspan></text>
      </g>
    </g>
  </g>
</svg>